<svg width="75" height="19" viewBox="0 0 75 19" fill="none" xmlns="http://www.w3.org/2000/svg">
<path d="M0.56 18V6.096H3.296L3.584 8.328C4.016 7.56 4.6 6.952 5.336 6.504C6.088 6.04 6.968 5.808 7.976 5.808V9.048H7.112C6.44 9.048 5.84 9.152 5.312 9.36C4.784 9.568 4.368 9.928 4.064 10.44C3.776 10.952 3.632 11.664 3.632 12.576V18H0.56ZM14.3767 18.288C13.2247 18.288 12.1847 18.024 11.2567 17.496C10.3447 16.968 9.61669 16.24 9.07269 15.312C8.54469 14.368 8.28069 13.28 8.28069 12.048C8.28069 10.816 8.55269 9.736 9.09669 8.808C9.64069 7.864 10.3687 7.128 11.2807 6.6C12.2087 6.072 13.2487 5.808 14.4007 5.808C15.5367 5.808 16.5607 6.072 17.4727 6.6C18.4007 7.128 19.1287 7.864 19.6567 8.808C20.2007 9.736 20.4727 10.816 20.4727 12.048C20.4727 13.28 20.2007 14.368 19.6567 15.312C19.1287 16.24 18.4007 16.968 17.4727 17.496C16.5447 18.024 15.5127 18.288 14.3767 18.288ZM14.3767 15.624C15.1767 15.624 15.8727 15.328 16.4647 14.736C17.0567 14.128 17.3527 13.232 17.3527 12.048C17.3527 10.864 17.0567 9.976 16.4647 9.384C15.8727 8.776 15.1847 8.472 14.4007 8.472C13.5847 8.472 12.8807 8.776 12.2887 9.384C11.7127 9.976 11.4247 10.864 11.4247 12.048C11.4247 13.232 11.7127 14.128 12.2887 14.736C12.8807 15.328 13.5767 15.624 14.3767 15.624ZM22.0194 18V6.096H24.7314L24.9714 8.112C25.3394 7.408 25.8674 6.848 26.5554 6.432C27.2594 6.016 28.0834 5.808 29.0274 5.808C30.4994 5.808 31.6434 6.272 32.4594 7.2C33.2754 8.128 33.6834 9.488 33.6834 11.28V18H30.6114V11.568C30.6114 10.544 30.4034 9.76 29.9874 9.216C29.5714 8.672 28.9234 8.4 28.0434 8.4C27.1794 8.4 26.4674 8.704 25.9074 9.312C25.3634 9.92 25.0914 10.768 25.0914 11.856V18H22.0194ZM41.2049 18.288C40.0049 18.288 38.9409 18.032 38.0129 17.52C37.0849 17.008 36.3569 16.288 35.8289 15.36C35.3009 14.432 35.0369 13.36 35.0369 12.144C35.0369 10.912 35.2929 9.816 35.8049 8.856C36.3329 7.896 37.0529 7.152 37.9649 6.624C38.8929 6.08 39.9809 5.808 41.2289 5.808C42.3969 5.808 43.4289 6.064 44.3249 6.576C45.2209 7.088 45.9169 7.792 46.4129 8.688C46.9249 9.568 47.1809 10.552 47.1809 11.64C47.1809 11.816 47.1729 12 47.1569 12.192C47.1569 12.384 47.1489 12.584 47.1329 12.792H38.0849C38.1489 13.72 38.4689 14.448 39.0449 14.976C39.6369 15.504 40.3489 15.768 41.1809 15.768C41.8049 15.768 42.3249 15.632 42.7409 15.36C43.1729 15.072 43.4929 14.704 43.7009 14.256H46.8209C46.5969 15.008 46.2209 15.696 45.6929 16.32C45.1809 16.928 44.5409 17.408 43.7729 17.76C43.0209 18.112 42.1649 18.288 41.2049 18.288ZM41.2289 8.304C40.4769 8.304 39.8129 8.52 39.2369 8.952C38.6609 9.368 38.2929 10.008 38.1329 10.872H44.0609C44.0129 10.088 43.7249 9.464 43.1969 9C42.6689 8.536 42.0129 8.304 41.2289 8.304ZM50.2207 4.248C49.6607 4.248 49.1967 4.08 48.8287 3.744C48.4767 3.408 48.3007 2.984 48.3007 2.472C48.3007 1.96 48.4767 1.544 48.8287 1.224C49.1967 0.887999 49.6607 0.719999 50.2207 0.719999C50.7807 0.719999 51.2367 0.887999 51.5887 1.224C51.9567 1.544 52.1407 1.96 52.1407 2.472C52.1407 2.984 51.9567 3.408 51.5887 3.744C51.2367 4.08 50.7807 4.248 50.2207 4.248ZM48.6847 18V6.096H51.7567V18H48.6847ZM53.7631 18V0.719999H56.8351V18H53.7631ZM58.7741 18V0.719999H61.8461V18H58.7741ZM67.889 18.288C66.865 18.288 66.025 18.128 65.369 17.808C64.713 17.472 64.225 17.032 63.905 16.488C63.585 15.944 63.425 15.344 63.425 14.688C63.425 13.584 63.857 12.688 64.721 12C65.585 11.312 66.881 10.968 68.609 10.968H71.633V10.68C71.633 9.864 71.401 9.264 70.937 8.88C70.473 8.496 69.897 8.304 69.209 8.304C68.585 8.304 68.041 8.456 67.577 8.76C67.113 9.048 66.825 9.48 66.713 10.056H63.713C63.793 9.192 64.081 8.44 64.577 7.8C65.089 7.16 65.745 6.672 66.545 6.336C67.345 5.984 68.241 5.808 69.233 5.808C70.929 5.808 72.265 6.232 73.241 7.08C74.217 7.928 74.705 9.128 74.705 10.68V18H72.089L71.801 16.08C71.449 16.72 70.953 17.248 70.313 17.664C69.689 18.08 68.881 18.288 67.889 18.288ZM68.585 15.888C69.465 15.888 70.145 15.6 70.625 15.024C71.121 14.448 71.433 13.736 71.561 12.888H68.945C68.129 12.888 67.545 13.04 67.193 13.344C66.841 13.632 66.665 13.992 66.665 14.424C66.665 14.888 66.841 15.248 67.193 15.504C67.545 15.76 68.009 15.888 68.585 15.888Z" fill="black"/>
</svg>
